<?xml version="1.0" standalone="no"?>
<!DOCTYPE svg PUBLIC "-//W3C//DTD SVG 20010904//EN"
 "http://www.w3.org/TR/2001/REC-SVG-20010904/DTD/svg10.dtd">
<svg version="1.0" xmlns="http://www.w3.org/2000/svg"
 width="302.000000pt" height="302.000000pt" viewBox="0 0 302.000000 302.000000"
 preserveAspectRatio="xMidYMid meet">
<metadata>
Created by potrace 1.11, written by Peter Selinger 2001-2013
</metadata>
<g transform="translate(0.000000,302.000000) scale(0.100000,-0.100000)"
fill="#000000" stroke="none">
<path d="M0 1510 l0 -1510 1510 0 1510 0 0 1510 0 1510 -1510 0 -1510 0 0
-1510z m2051 493 c-528 -629 -638 -758 -645 -756 -8 2 -474 537 -471 541 1 1
102 -54 225 -123 l223 -125 31 24 c17 13 211 170 431 350 220 179 401 326 403
326 1 0 -87 -107 -197 -237z m-1567 -1170 c3 -10 13 -71 22 -136 10 -65 20
-114 24 -110 4 4 33 65 66 136 58 125 59 127 91 127 18 0 33 -2 33 -5 0 -3
-39 -84 -87 -180 -85 -169 -89 -175 -118 -175 l-30 0 -28 153 c-16 83 -31 164
-34 180 -5 25 -3 27 25 27 21 0 32 -6 36 -17z m341 -8 c0 -13 -8 -21 -24 -23
-28 -4 -46 11 -37 33 9 25 61 16 61 -10z m550 0 c0 -13 -8 -21 -24 -23 -28 -4
-46 11 -37 33 9 25 61 16 61 -10z m-158 -40 c-5 -32 -4 -35 20 -35 19 0 24 -4
19 -16 -3 -9 -6 -20 -6 -25 0 -5 -11 -9 -24 -9 -21 0 -24 -6 -35 -75 -13 -77
-10 -95 15 -95 8 0 14 -9 14 -20 0 -17 -7 -20 -40 -20 -57 0 -65 22 -47 128
13 78 13 82 -4 82 -29 0 -26 48 4 52 17 2 23 11 25 36 3 28 7 32 34 32 29 0
30 -1 25 -35z m-411 -67 c-4 -18 -14 -77 -23 -130 -16 -97 -16 -98 -45 -98
-15 0 -28 3 -28 7 0 4 10 62 22 130 l21 123 30 0 c28 0 29 -2 23 -32z m225 21
c33 -17 39 -50 24 -140 -7 -46 -11 -89 -8 -96 4 -9 -5 -13 -26 -13 -17 0 -31
5 -31 10 0 7 -6 7 -19 0 -56 -30 -131 2 -131 56 0 58 50 94 130 94 37 0 41 2
38 21 -5 38 -33 46 -67 21 -60 -44 -103 -9 -45 37 29 23 101 29 135 10z m325
-21 c-4 -18 -14 -77 -23 -130 -16 -97 -16 -98 -45 -98 -15 0 -28 3 -28 7 0 4
10 62 22 130 l21 123 30 0 c28 0 29 -2 23 -32z m243 6 c29 -37 27 -64 -3 -64
-16 0 -27 7 -31 19 -3 11 -15 23 -26 26 -69 22 -121 -129 -58 -168 16 -10 26
-6 84 37 7 5 20 6 29 3 13 -5 14 -10 4 -32 -26 -57 -129 -75 -173 -30 -21 20
-25 34 -25 80 0 99 48 155 131 155 39 0 51 -4 68 -26z m242 15 c33 -17 39 -50
24 -140 -7 -46 -11 -89 -8 -96 4 -9 -5 -13 -26 -13 -17 0 -31 5 -31 10 0 7 -6
7 -19 0 -56 -30 -131 2 -131 56 0 58 50 94 130 94 37 0 41 2 38 21 -5 38 -33
46 -67 21 -60 -44 -103 -9 -45 37 29 23 101 29 135 10z"/>
<path d="M922 594 c-44 -31 -11 -80 37 -54 21 11 41 40 41 59 0 16 -53 13 -78
-5z"/>
<path d="M1732 594 c-44 -31 -11 -80 37 -54 21 11 41 40 41 59 0 16 -53 13
-78 -5z"/>
</g>
</svg>
